# xmcd CD database file
#
# Track frame offsets:
#	150
#	26967
#	46654
#	81355
#	96156
#	121486
#	142041
#	169953
#	191717
#	209880
#	236944
#	259599
#
# Disc length: 3762 seconds
#
# Revision: 2
# Processed by: cddbd v1.4PL0 Copyright (c) Steve Scherf et al.
# Submitted via: CDex 1.50Beta7
#
DISCID=b90eb00c
DTITLE=Antonello Venditti - Il Diario
DYEAR=1900
DGENRE=Italian
TTITLE0=Sotto il segno dei pesci
TTITLE1=Sara
TTITLE2=Modena
TTITLE3=Mezzanotte
TTITLE4=Buona Domenica
TTITLE5=Stai con me
TTITLE6=Lilly
TTITLE7=Roma capoccia
TTITLE8=Attila e la stella
TTITLE9=Campo de` fiori
TTITLE10=Bomba o non bomba...
TTITLE11=Giulia
EXTD=Compilation\nDistribuzione PolyGram (C) 1991\n\nTesti e musiche di Antonello Venditti\nProdotto da Michelangelo Romano\n\ninserito il 16.03.1998 da Arnold Unterholzner - Email: arnold@ines.gn.apc.org
EXTT0=
EXTT1=
EXTT2=
EXTT3=
EXTT4=
EXTT5=
EXTT6=
EXTT7=
EXTT8=
EXTT9=
EXTT10=
EXTT11=
PLAYORDER=
